<svg xmlns="http://www.w3.org/2000/svg" viewBox="0 0 94.03 34.02"><defs><style>.cls-1{fill:#434c4a;}</style></defs><title>Asset 44</title><g id="Layer_2" data-name="Layer 2"><g id="AT_Līnija"><path class="cls-1" d="M.5,23.72H4.85c-1.26,4.44.74,6.76,4.9,6.76a7.5,7.5,0,0,0,7.19-5.91c.5-2.88-1.38-4.77-4.28-5.48l-4-1A7.27,7.27,0,0,1,3,9.36C4,3.64,9.5,0,15,0c5.1,0,9.77,3,8.36,9.92H19.05c1-4.63-1.48-6.61-4.65-6.61S7.71,5.62,7.09,9.12c-.39,2.22.51,4.11,3.85,5l4,1c4.48,1.14,6.91,4.54,6.08,9.22C20.05,29.68,16,34,9.13,34S-1.4,29.68.5,23.72Z"/><path class="cls-1" d="M23.85,30h7.61L32,25.23l2.9-16.44,1.16-5V3.78h-7.6L29.06.47H48l-.58,3.31H39.77v.05l-.59,5-2.9,16.44L35.15,30h7.6l-.62,3.54H23.23Z"/><path class="cls-1" d="M84.27.47h6.8l3,33.08H89.45l-.27-5.2v-4H77.79l-1.41,4-2.1,5.2H69.93ZM89.06,21l-.52-4L87.8,3.78H86.38L81,17l-1.93,4Z"/><path class="cls-1" d="M56.76.47l-.58,3.31H67.35v.05l-1.15,5-2.3,13c-1.15,6.52-3.8,8.65-7.2,8.65-4.44,0-5.3-2.93-4.11-9.69H48.24C46.62,30,49.31,34,56.06,34c7.57,0,10.8-5,12.08-12.19L71.91.47Z"/></g></g></svg>