<svg xmlns="http://www.w3.org/2000/svg" viewBox="0 0 63.62 17.28"><defs><style>.cls-1{fill:#3f635c;}</style></defs><title>Asset 43</title><g id="Layer_2" data-name="Layer 2"><g id="AT_Līnija"><path class="cls-1" d="M.25,12.05H2.46c-.64,2.25.38,3.43,2.49,3.43a3.81,3.81,0,0,0,3.65-3C8.86,11,7.9,10.06,6.43,9.7l-2-.51A3.69,3.69,0,0,1,1.54,4.75,6.07,6.07,0,0,1,7.63,0c2.6,0,5,1.54,4.25,5H9.67c.51-2.35-.75-3.36-2.36-3.36a3.86,3.86,0,0,0-3.71,3c-.2,1.13.26,2.09,2,2.52l2,.51a3.84,3.84,0,0,1,3.09,4.68,5.79,5.79,0,0,1-6,4.94C1.15,17.28-.71,15.07.25,12.05Z"/><path class="cls-1" d="M17.84,15.24h3.87L22,12.82l1.47-8.36.59-2.52v0H20.19l.3-1.68h9.6l-.3,1.68H25.93v0l-.3,2.52-1.47,8.36-.57,2.42h3.86L27.12,17h-9.6Z"/><path class="cls-1" d="M58.67.24h3.45L63.62,17H61.3l-.14-2.64v-2H55.38l-.72,2L53.59,17H51.38ZM61.1,10.68l-.27-2-.37-6.72h-.72L57,8.64l-1,2Z"/><path class="cls-1" d="M39.59.24l-.3,1.68H45v0l-.58,2.52-1.17,6.63c-.59,3.31-1.93,4.39-3.66,4.39-2.25,0-2.69-1.49-2.08-4.92H35.26c-.82,4.66.54,6.72,4,6.72,3.85,0,5.49-2.52,6.14-6.19L47.28.24Z"/></g></g></svg>