<svg xmlns="http://www.w3.org/2000/svg" viewBox="0 0 88.16 30.51"><defs><style>.cls-1{fill:#3f635c;}</style></defs><title>Asset 50</title><g id="Layer_2" data-name="Layer 2"><g id="AT_Līnija"><path class="cls-1" d="M23.58,9.2H19.92A6.15,6.15,0,0,0,18.52,5Q17.08,3.28,13.8,3.29A7.26,7.26,0,0,0,9.14,4.62,4.06,4.06,0,0,0,7.47,7.91a3.51,3.51,0,0,0,1.06,2.74,9.71,9.71,0,0,0,3,1.71l3.37,1.33a13.49,13.49,0,0,1,4.91,3.12,6.59,6.59,0,0,1,1.71,4.67,8.41,8.41,0,0,1-1.4,4.89,8.92,8.92,0,0,1-3.8,3.08,13.69,13.69,0,0,1-5.5,1.06A14.49,14.49,0,0,1,4.64,29.3,7.9,7.9,0,0,1,.85,25.8a8.64,8.64,0,0,1-.7-5.49H3.81A5.43,5.43,0,0,0,5.27,25.2c1.24,1.23,3.12,1.85,5.61,1.85a7.84,7.84,0,0,0,5-1.41A4.45,4.45,0,0,0,17.67,22a4.26,4.26,0,0,0-1-3,8.07,8.07,0,0,0-3.08-1.85l-3.54-1.38a13.71,13.71,0,0,1-4.7-2.83A6.2,6.2,0,0,1,3.64,8.28,7.33,7.33,0,0,1,4.93,4,8.68,8.68,0,0,1,8.55,1.06,13,13,0,0,1,14,0c3.21,0,5.65.85,7.3,2.56A8.49,8.49,0,0,1,23.58,9.2Z"/><path class="cls-1" d="M23.93,29.76l.71-3.25H30.8l4.78-22.6H29.42L30.13.67H46.4l-.7,3.24H39.49l-4.78,22.6h6.2l-.71,3.25Z"/><path class="cls-1" d="M59.1,21.1,63.43.67H67.3L62.76,22.1a10.9,10.9,0,0,1-3.31,6.22A9.39,9.39,0,0,1,53,30.51a11.3,11.3,0,0,1-5.2-1.13A6.5,6.5,0,0,1,44.62,26a9.36,9.36,0,0,1-.17-5.74l.17-.71h4l-.33,1.54a5.39,5.39,0,0,0,.68,4.47A4.71,4.71,0,0,0,53,27.26,5.27,5.27,0,0,0,57,25.76,9.68,9.68,0,0,0,59.1,21.1Z"/><path class="cls-1" d="M84.37,29.76l-.75-8.7H73.55l-4.41,8.7h-4.2L80.29.67h4.87l3,29.09Zm-9.15-12h8.11L82.17,4.12Z"/></g></g></svg>