<svg xmlns="http://www.w3.org/2000/svg" viewBox="0 0 99.3 99.3"><defs><style>.cls-1{fill:none;stroke:#434c4a;stroke-miterlimit:10;}.cls-2{fill:#434c4a;}</style></defs><title>Asset 47</title><g id="Layer_2" data-name="Layer 2"><g id="AT_Dims"><g id="LINE"><line class="cls-1" x1="98.8" y1="96.22" x2="83.7" y2="81.12"/></g><g id="POLYLINE"><polygon class="cls-1" points="81.12 96.22 66.03 96.22 66.03 98.8 98.8 98.8 98.8 96.22 83.7 96.22 83.7 68.61 98.8 68.61 98.8 66.03 66.03 66.03 66.03 68.61 81.12 68.61 81.12 96.22"/></g><g id="LINE-2" data-name="LINE"><line class="cls-1" x1="66.03" y1="98.8" x2="0.5" y2="33.27"/></g><g id="LINE-3" data-name="LINE"><line class="cls-1" x1="66.03" y1="96.22" x2="0.5" y2="30.69"/></g><g id="LINE-4" data-name="LINE"><line class="cls-1" x1="81.12" y1="96.22" x2="15.59" y2="30.69"/></g><g id="LINE-5" data-name="LINE"><line class="cls-1" x1="66.03" y1="66.03" x2="0.5" y2="0.5"/></g><g id="LINE-6" data-name="LINE"><line class="cls-1" x1="98.8" y1="66.03" x2="33.27" y2="0.5"/></g><g id="LINE-7" data-name="LINE"><line class="cls-1" x1="66.03" y1="68.61" x2="0.5" y2="3.08"/></g><g id="POLYLINE-2" data-name="POLYLINE"><polyline class="cls-1" points="0.5 30.69 15.59 30.69 15.59 18.17 0.5 3.08"/></g><g id="LINE-8" data-name="LINE"><line class="cls-1" x1="0.5" y1="30.69" x2="0.5" y2="33.27"/></g><g id="POLYLINE-3" data-name="POLYLINE"><polyline class="cls-1" points="0.5 3.08 0.5 0.5 33.27 0.5"/></g><g id="POLYLINE-4" data-name="POLYLINE"><polygon class="cls-2" points="81.13 68.62 81.13 96.21 66.04 96.21 66.04 98.8 0.5 33.26 0.5 30.69 15.59 30.69 15.59 18.17 66.04 68.62 81.13 68.62"/><line class="cls-2" x1="15.59" y1="18.17" x2="0.5" y2="3.08"/></g></g></g></svg>